<?xml version="1.0" encoding="utf-8"?>
<!-- Generator: Adobe Illustrator 24.0.0, SVG Export Plug-In . SVG Version: 6.00 Build 0)  -->
<!DOCTYPE svg PUBLIC "-//W3C//DTD SVG 1.1//EN" "http://www.w3.org/Graphics/SVG/1.1/DTD/svg11.dtd" [
	<!ENTITY ns_extend "http://ns.adobe.com/Extensibility/1.0/">
	<!ENTITY ns_ai "http://ns.adobe.com/AdobeIllustrator/10.0/">
	<!ENTITY ns_graphs "http://ns.adobe.com/Graphs/1.0/">
	<!ENTITY ns_vars "http://ns.adobe.com/Variables/1.0/">
	<!ENTITY ns_imrep "http://ns.adobe.com/ImageReplacement/1.0/">
	<!ENTITY ns_sfw "http://ns.adobe.com/SaveForWeb/1.0/">
	<!ENTITY ns_custom "http://ns.adobe.com/GenericCustomNamespace/1.0/">
	<!ENTITY ns_adobe_xpath "http://ns.adobe.com/XPath/1.0/">
]>
<svg version="1.1" id="Ebene_1" xmlns:x="&ns_extend;" xmlns:i="&ns_ai;" xmlns:graph="&ns_graphs;"
	 xmlns="http://www.w3.org/2000/svg" xmlns:xlink="http://www.w3.org/1999/xlink" x="0px" y="0px" width="28px" height="28px"
	 viewBox="0 0 28 28" style="enable-background:new 0 0 28 28;" xml:space="preserve">
<style type="text/css">
	.st0{fill:#FFFFFF;}
</style>
<metadata>
	<sfw  xmlns="&ns_sfw;">
		<slices></slices>
		<sliceSourceBounds  bottomLeftOrigin="true" height="26" width="26" x="9" y="-35"></sliceSourceBounds>
	</sfw>
</metadata>
<g>
	<polygon class="st0" points="1,8.4 8.4,8.4 8.4,1 4.9,4.5 1.7,1.2 1.2,1.7 4.5,4.9 	"/>
	<polygon class="st0" points="19.6,1 19.6,8.4 27,8.4 23.5,4.9 26.8,1.7 26.3,1.2 23.1,4.5 	"/>
	<polygon class="st0" points="27,19.6 19.6,19.6 19.6,27 23.1,23.5 26.3,26.8 26.8,26.3 23.5,23.1 	"/>
	<polygon class="st0" points="8.4,27 8.4,19.6 1,19.6 4.5,23.1 1.2,26.3 1.7,26.8 4.9,23.5 	"/>
</g>
</svg>
